<svg width="588" height="588" viewBox="0 0 588 588" fill="none" xmlns="http://www.w3.org/2000/svg">
<g filter="url(#filter0_b_531_454)">
<circle cx="294" cy="294" r="294" fill="url(#paint0_linear_531_454)"/>
</g>
<g opacity="0.58">
<path opacity="0.1" d="M493.3 459.499C493.3 467.799 486.6 474.399 478.3 474.299C408.5 473.699 346.6 472.599 284.3 472.599C224.4 472.599 167.8 475.799 108.4 476.799C100.1 476.899 93.2998 470.199 93.2998 461.899V362.399L493.4 362.899L493.3 459.499Z" fill="#262938"/>
<path opacity="0.1889" d="M493.3 458.399C493.3 466.699 486.6 473.299 478.3 473.299C408.4 472.699 346.6 471.399 284.4 471.399C224.6 471.399 167.8 474.499 108.4 475.499C100.1 475.599 93.2998 468.899 93.2998 460.599V361.199L493.4 361.699L493.3 458.399Z" fill="#262938"/>
<path opacity="0.2778" d="M493.3 457.3C493.3 465.6 486.5 472.2 478.3 472.2C408.3 471.5 346.5 470.1 284.5 470.1C224.8 470.1 167.7 473.2 108.4 474.1C100.1 474.2 93.2998 467.5 93.2998 459.2V360L493.4 360.4L493.3 457.3Z" fill="#262938"/>
<path opacity="0.3667" d="M493.3 456.2C493.3 464.5 486.5 471.1 478.3 471.1C408.2 470.4 346.5 468.9 284.6 468.9C225 468.9 167.7 471.9 108.4 472.8C100.1 472.9 93.2998 466.2 93.2998 457.9V358.8L493.4 359.2L493.3 456.2Z" fill="#262938"/>
<path opacity="0.4556" d="M493.4 455.1C493.4 463.4 486.6 470 478.4 470C408.1 469.3 346.6 467.6 284.7 467.6C225.3 467.6 167.6 470.5 108.4 471.4C100.1 471.5 93.2998 464.8 93.2998 456.5V357.6L493.4 357.9V455.1Z" fill="#262938"/>
<path opacity="0.5444" d="M493.4 454.099C493.4 462.399 486.6 468.999 478.4 468.999C408 468.299 346.6 466.399 284.8 466.399C225.5 466.399 167.5 469.199 108.4 470.099C100.1 470.199 93.2998 463.499 93.2998 455.199V356.399L493.4 356.599V454.099Z" fill="#262938"/>
<path opacity="0.6333" d="M493.4 452.999C493.4 461.299 486.6 467.899 478.4 467.899C407.9 467.199 346.5 465.099 284.9 465.099C225.7 465.099 167.5 467.799 108.4 468.699C100.1 468.799 93.2998 462.099 93.2998 453.799V355.199L493.4 355.399V452.999Z" fill="#262938"/>
<path opacity="0.7222" d="M493.4 451.899C493.4 460.199 486.6 466.899 478.4 466.799C407.8 465.999 346.5 463.799 285 463.799C225.9 463.799 167.4 466.399 108.4 467.299C100.1 467.399 93.2998 460.699 93.2998 452.399V353.899L493.4 353.999V451.899Z" fill="#262938"/>
<path opacity="0.8111" d="M493.4 450.8C493.4 459.1 486.6 465.8 478.4 465.7C407.6 464.9 346.5 462.6 285.1 462.6C226.2 462.6 167.4 465.1 108.4 466C100.1 466.1 93.2998 459.4 93.2998 451.1V352.8L493.4 352.9V450.8Z" fill="#262938"/>
<path opacity="0.9" d="M493.4 449.7C493.4 458 486.6 464.7 478.4 464.6C407.5 463.8 346.5 461.3 285.2 461.3C226.4 461.3 167.3 463.7 108.4 464.6C100.1 464.7 93.2998 458 93.2998 449.7V351.6H493.4V449.7Z" fill="#262938"/>
</g>
<path d="M484.8 462.5H102.6C96.7 462.5 92 457.7 92 451.9V122.6C92 116.7 96.8 112 102.6 112H484.8C490.7 112 495.4 116.8 495.4 122.6V451.8C495.4 457.7 490.7 462.5 484.8 462.5Z" fill="#FEFEFE"/>
<path d="M480.1 167H106.6V392.3H480.1V167Z" fill="#4C1D95"/>
<path d="M480.1 390.3H106.6V392.3H480.1V390.3Z" fill="#043B51"/>
<path d="M480.1 167H106.6V169H480.1V167Z" fill="#043B51"/>
<path d="M293.4 261.8C283.6 261.8 275.6 269.8 275.6 279.6C275.6 289.4 283.6 297.4 293.4 297.4C303.2 297.4 311.2 289.4 311.2 279.6C311.2 269.8 303.2 261.8 293.4 261.8ZM285.8 291.1V268.2L305.7 279.7L285.8 291.1Z" fill="white" fill-opacity="0.46"/>
<path d="M471 371.801C471 371.201 470.5 370.801 470 370.801H116.7C116.1 370.801 115.7 371.301 115.7 371.801C115.7 372.401 116.2 372.801 116.7 372.801H470C470.6 372.801 471 372.301 471 371.801Z" fill="#FFF5C9"/>
<path d="M285.9 370.801H116.7C116.1 370.801 115.7 371.301 115.7 371.801C115.7 372.401 116.2 372.801 116.7 372.801H285.9V370.801Z" fill="#4C1D95" fill-opacity="0.46"/>
<path d="M287.4 374.7C289.002 374.7 290.3 373.402 290.3 371.8C290.3 370.199 289.002 368.9 287.4 368.9C285.798 368.9 284.5 370.199 284.5 371.8C284.5 373.402 285.798 374.7 287.4 374.7Z" fill="#835CC1"/>
<path d="M287.4 373.301C288.229 373.301 288.9 372.629 288.9 371.801C288.9 370.972 288.229 370.301 287.4 370.301C286.572 370.301 285.9 370.972 285.9 371.801C285.9 372.629 286.572 373.301 287.4 373.301Z" fill="#835CC1"/>
<path d="M145.8 376.699L151.9 380.299C152.5 380.599 152.5 381.499 151.9 381.799L145.8 385.399C145.2 385.699 144.5 385.299 144.5 384.699V377.399C144.6 376.799 145.3 376.299 145.8 376.699Z" fill="#FFF5C9"/>
<path d="M155.2 386C155.7 386 156.1 385.6 156.1 385.1V376.7C156.1 376.2 155.7 375.8 155.2 375.8C154.7 375.8 154.3 376.2 154.3 376.7V385.1C154.4 385.6 154.8 386 155.2 386Z" fill="#FFF5C9"/>
<path d="M126.4 386C126.9 386 127.3 385.6 127.3 385.1V376.7C127.3 376.2 126.9 375.8 126.4 375.8C125.9 375.8 125.5 376.2 125.5 376.7V385.1C125.5 385.6 125.9 386 126.4 386Z" fill="#FFF5C9"/>
<path d="M122 386C122.5 386 122.9 385.6 122.9 385.1V376.7C122.9 376.2 122.5 375.8 122 375.8C121.5 375.8 121.1 376.2 121.1 376.7V385.1C121.1 385.6 121.5 386 122 386Z" fill="#FFF5C9"/>
<path d="M458.3 384.299H455.8V377.699H458.3C458.8 377.699 459.2 377.299 459.2 376.799C459.2 376.299 458.8 375.899 458.3 375.899H454.9C454.4 375.899 454 376.299 454 376.799V385.199C454 385.699 454.4 386.099 454.9 386.099H458.3C458.8 386.099 459.2 385.699 459.2 385.199C459.2 384.699 458.8 384.299 458.3 384.299Z" fill="#FFF5C9"/>
<path d="M461.4 384.299H463.9V377.699H461.4C460.9 377.699 460.5 377.299 460.5 376.799C460.5 376.299 460.9 375.899 461.4 375.899H464.8C465.3 375.899 465.7 376.299 465.7 376.799V385.199C465.7 385.699 465.3 386.099 464.8 386.099H461.4C460.9 386.099 460.5 385.699 460.5 385.199C460.5 384.699 460.9 384.299 461.4 384.299Z" fill="#FFF5C9"/>
<path d="M123.9 410.4H124.1C124.7 410.4 125.2 409.9 125.2 409.2C125.2 408.6 124.7 408.1 124 408.1H122.1H120.5C120.1 408.1 119.9 407.8 119.9 407.4L120 406.7C120.1 406 120.2 405.1 119.8 404.5C119.5 404 118.9 403.6 118.2 403.6C117.8 403.6 117.4 403.9 117.4 404.4C117.3 405.4 117.1 406.4 116.7 407.3C116.5 407.8 115.9 408.2 115.4 408.2H114.5C113.8 408.2 113.1 408.8 113.1 409.6V415.8C113.1 416.4 113.6 416.9 114.2 416.9H117.1H119.4H122.1C122.6 416.9 123.1 416.5 123.1 415.9C123.1 415.5 122.8 415.2 122.5 415C122.5 415 122.4 415 122.4 414.9H122.7C123.3 414.9 123.8 414.4 123.8 413.8C123.8 413.3 123.5 412.9 123.1 412.8H123.4C124 412.8 124.5 412.3 124.5 411.7C124.6 411 124.3 410.6 123.9 410.4Z" fill="#DDDDDD"/>
<path d="M111.6 416.8H109.3C108.7 416.8 108.3 416.4 108.3 415.8V409.1C108.3 408.5 108.7 408.1 109.3 408.1H111.6C112.2 408.1 112.6 408.5 112.6 409.1V415.8C112.6 416.4 112.1 416.8 111.6 416.8Z" fill="#DDDDDD"/>
<path d="M137.8 414.6H137.6C137 414.6 136.5 415.1 136.5 415.8C136.5 416.4 137 416.9 137.7 416.9H139.6H141.2C141.6 416.9 141.8 417.2 141.8 417.6L141.7 418.3C141.6 419 141.5 419.9 141.9 420.5C142.2 421 142.8 421.4 143.5 421.4C143.9 421.4 144.3 421.1 144.3 420.6C144.4 419.6 144.6 418.6 145 417.7C145.2 417.2 145.8 416.8 146.3 416.8H147.2C147.9 416.8 148.6 416.2 148.6 415.4V409.2C148.6 408.6 148.1 408.1 147.5 408.1H144.6H142.3H139.6C139.1 408.1 138.6 408.5 138.6 409.1C138.6 409.5 138.9 409.8 139.2 410C139.2 410 139.3 410 139.3 410.1H138.9C138.3 410.1 137.8 410.6 137.8 411.2C137.8 411.7 138.1 412.1 138.5 412.2H138.2C137.6 412.2 137.1 412.7 137.1 413.3C137.1 414 137.4 414.4 137.8 414.6Z" fill="#DDDDDD"/>
<path d="M150.1 408.199H152.4C153 408.199 153.4 408.599 153.4 409.199V415.899C153.4 416.499 153 416.899 152.4 416.899H150.1C149.5 416.899 149.1 416.499 149.1 415.899V409.199C149.1 408.599 149.5 408.199 150.1 408.199Z" fill="#DDDDDD"/>
<path d="M180.599 410.999L174.699 407.599C174.099 407.199 173.299 407.699 173.299 408.399V410.199C170.299 410.399 165.399 411.399 165.399 416.799C165.399 416.799 167.299 414.099 173.299 413.599V415.199C173.299 415.899 174.099 416.399 174.699 415.999L180.599 412.599C181.199 412.199 181.199 411.299 180.599 410.999Z" fill="#DDDDDD"/>
<path d="M207.999 408.199H194.899V409.199H207.999V408.199Z" fill="#DDDDDD"/>
<path d="M207.999 409.699H194.899V410.699H207.999V409.699Z" fill="#DDDDDD"/>
<path d="M198.999 411.299H194.899V412.299H198.999V411.299Z" fill="#DDDDDD"/>
<path d="M198.999 412.799H194.899V413.799H198.999V412.799Z" fill="#DDDDDD"/>
<path d="M198.999 414.399H194.899V415.399H198.999V414.399Z" fill="#DDDDDD"/>
<path d="M198.999 415.899H194.899V416.899H198.999V415.899Z" fill="#DDDDDD"/>
<path d="M206.3 413.099H205.7C205.4 413.099 205.1 412.799 205.1 412.499V411.799C205.1 411.499 204.8 411.199 204.5 411.199H203.8C203.5 411.199 203.2 411.499 203.2 411.799V412.499C203.2 412.799 202.9 413.099 202.6 413.099H201.9C201.6 413.099 201.3 413.399 201.3 413.699V414.399C201.3 414.699 201.6 414.999 201.9 414.999H202.6C202.9 414.999 203.2 415.299 203.2 415.599V416.299C203.2 416.599 203.5 416.899 203.8 416.899H204.5C204.8 416.899 205.1 416.599 205.1 416.299V415.599C205.1 415.299 205.4 414.999 205.7 414.999H206.4C206.7 414.999 207 414.699 207 414.399V413.699C206.9 413.399 206.6 413.099 206.3 413.099Z" fill="#DDDDDD"/>
<path d="M225.6 413.6C226.152 413.6 226.6 413.152 226.6 412.6C226.6 412.047 226.152 411.6 225.6 411.6C225.047 411.6 224.6 412.047 224.6 412.6C224.6 413.152 225.047 413.6 225.6 413.6Z" fill="#DDDDDD"/>
<path d="M229.699 413.6C230.252 413.6 230.699 413.152 230.699 412.6C230.699 412.047 230.252 411.6 229.699 411.6C229.147 411.6 228.699 412.047 228.699 412.6C228.699 413.152 229.147 413.6 229.699 413.6Z" fill="#DDDDDD"/>
<path d="M233.8 413.6C234.352 413.6 234.8 413.152 234.8 412.6C234.8 412.047 234.352 411.6 233.8 411.6C233.248 411.6 232.8 412.047 232.8 412.6C232.8 413.152 233.248 413.6 233.8 413.6Z" fill="#DDDDDD"/>
<path d="M117.7 150.4C123.83 150.4 128.8 145.431 128.8 139.3C128.8 133.17 123.83 128.2 117.7 128.2C111.569 128.2 106.6 133.17 106.6 139.3C106.6 145.431 111.569 150.4 117.7 150.4Z" fill="#DDDDDD"/>
<path d="M117.5 138.901C118.825 138.901 119.9 137.826 119.9 136.501C119.9 135.175 118.825 134.101 117.5 134.101C116.174 134.101 115.1 135.175 115.1 136.501C115.1 137.826 116.174 138.901 117.5 138.901Z" fill="#FEFEFE"/>
<path d="M121.999 144.2V143.5C121.999 141.1 120.099 139.2 117.699 139.2C115.299 139.2 113.399 141.1 113.399 143.5V144.2H121.999Z" fill="#FEFEFE"/>
<path d="M228 144.7H148.7C145.7 144.7 143.3 142.3 143.3 139.3C143.3 136.3 145.7 133.9 148.7 133.9H228C231 133.9 233.4 136.3 233.4 139.3C233.4 142.3 231 144.7 228 144.7Z" fill="#4C1D95" fill-opacity="0.46"/>
<path d="M480.1 445.5C480.1 444.9 479.6 444.4 479 444.4H107.7C107.1 444.4 106.6 444.9 106.6 445.5C106.6 446.1 107.1 446.6 107.7 446.6H479.1C479.6 446.5 480.1 446.1 480.1 445.5Z" fill="#4C1D95" fill-opacity="0.46"/>
<defs>
<filter id="filter0_b_531_454" x="-120" y="-120" width="828" height="828" filterUnits="userSpaceOnUse" color-interpolation-filters="sRGB">
<feFlood flood-opacity="0" result="BackgroundImageFix"/>
<feGaussianBlur in="BackgroundImageFix" stdDeviation="60"/>
<feComposite in2="SourceAlpha" operator="in" result="effect1_backgroundBlur_531_454"/>
<feBlend mode="normal" in="SourceGraphic" in2="effect1_backgroundBlur_531_454" result="shape"/>
</filter>
<linearGradient id="paint0_linear_531_454" x1="294" y1="0" x2="294" y2="588" gradientUnits="userSpaceOnUse">
<stop stop-color="#CAC9EE"/>
<stop offset="1" stop-color="#E9C4F3"/>
</linearGradient>
</defs>
</svg>
